<svg width="35" height="35" viewBox="0 0 35 35" fill="none" xmlns="http://www.w3.org/2000/svg">
<path fill-rule="evenodd" clip-rule="evenodd" d="M11.4333 8.75033H8.57494V7.29199H5.71661V11.667H28.5833V7.29199H25.7249V8.75033H22.8666V7.29199H11.4333V8.75033ZM5.71661 29.167V14.5837H28.5833V29.167H5.71661ZM22.8666 4.37533H11.4333V2.91699H8.57494V4.37533H5.71661C4.138 4.37533 2.85828 5.68116 2.85828 7.29199V29.167C2.85828 30.7778 4.138 32.0837 5.71661 32.0837H28.5833C30.1619 32.0837 31.4416 30.7778 31.4416 29.167V7.29199C31.4416 5.68116 30.1619 4.37533 28.5833 4.37533H25.7249V2.91699H22.8666V4.37533ZM17.4111 16.6397C17.3104 16.4091 16.9897 16.4091 16.8889 16.6397L15.6379 19.5036C15.5963 19.5987 15.5082 19.664 15.4068 19.675L12.3508 20.0041C12.1048 20.0306 12.0057 20.3418 12.1895 20.5108L14.4722 22.61C14.548 22.6797 14.5816 22.7853 14.5605 22.8871L13.9229 25.9545C13.8716 26.2015 14.131 26.3938 14.3453 26.2677L17.0072 24.7011C17.0956 24.6491 17.2044 24.6491 17.2928 24.7011L19.9547 26.2677C20.169 26.3938 20.4285 26.2015 20.3771 25.9545L19.7395 22.8871C19.7184 22.7853 19.752 22.6797 19.8278 22.61L22.1105 20.5108C22.2943 20.3418 22.1952 20.0306 21.9492 20.0041L18.8932 19.675C18.7918 19.664 18.7037 19.5987 18.6622 19.5036L17.4111 16.6397Z" fill="#BDBDBD"/>
</svg>
