<svg width="25" height="25" viewBox="0 0 25 25" fill="none" xmlns="http://www.w3.org/2000/svg">
<path fill-rule="evenodd" clip-rule="evenodd" d="M8.33329 6.24967H6.24996V5.20801H4.16679V8.33301H20.8335V5.20801H18.7501V6.24967H16.6668V5.20801H8.33329V6.24967ZM20.8335 10.4163H4.16679V20.833H20.8335V10.4163ZM16.6668 3.12459H8.33329V2.08301H6.24996V3.12459H4.16671C3.01611 3.12459 2.08337 4.05733 2.08337 5.20793V20.8329C2.08337 21.9835 3.01611 22.9163 4.16671 22.9163H20.8334C21.984 22.9163 22.9167 21.9835 22.9167 20.8329V5.20793C22.9167 4.05733 21.984 3.12459 20.8334 3.12459H18.7501V2.08301H16.6668V3.12459ZM9.37512 14.5829H7.29179V12.4996H9.37512V14.5829ZM11.4584 14.5829H13.5417V12.4996H11.4584V14.5829ZM17.7083 14.5829H15.625V12.4996H17.7083V14.5829ZM7.29179 18.7498H9.37512V16.6664H7.29179V18.7498ZM13.5417 18.7498H11.4584V16.6664H13.5417V18.7498Z" fill="#828282"/>
</svg>
