<svg width="111" height="24" viewBox="0 0 111 24" fill="none" xmlns="http://www.w3.org/2000/svg">
<path d="M11.4528 16.7328L11.3944 15.9362C9.63038 16.0654 8.04139 15.0839 7.31357 13.5839L6.5935 13.9301C7.45943 15.7171 9.35182 16.8868 11.4528 16.7328Z" fill="#C4C4C4"/>
<path d="M10.7814 7.57164L10.723 6.77502C12.8338 6.62033 14.734 7.80155 15.5943 9.60259L14.8742 9.9488C14.152 8.4348 12.5552 7.44165 10.7814 7.57164Z" fill="#C4C4C4"/>
<path fill-rule="evenodd" clip-rule="evenodd" d="M10.0129 6.82825C9.98414 6.43587 10.2789 6.09448 10.6713 6.06572C13.0843 5.88889 15.2549 7.23984 16.2374 9.2967C16.4067 9.65107 16.2572 10.0756 15.9033 10.2458L15.1832 10.592C15.0126 10.674 14.8164 10.6847 14.6378 10.6218C14.4593 10.5589 14.3131 10.4275 14.2316 10.2567C13.6315 8.99869 12.3051 8.17543 10.8338 8.28326C10.4414 8.31201 10.1 8.01724 10.0713 7.62487L10.0129 6.82825ZM7.00521 12.9431C7.35888 12.773 7.78347 12.9211 7.95478 13.2741C8.55956 14.5205 9.87941 15.3341 11.3427 15.2269C11.735 15.1981 12.0764 15.4929 12.1052 15.8853L12.1636 16.6819C12.1923 17.0743 11.8975 17.4157 11.5052 17.4444C9.10329 17.6204 6.94165 16.2827 5.95275 14.2419C5.8702 14.0716 5.85885 13.8754 5.92122 13.6966C5.98358 13.5179 6.11453 13.3713 6.28514 13.2893L7.00521 12.9431Z" fill="#5CDB95"/>
<path d="M11.8363 22.0439L11.7156 20.3977C8.07023 20.6648 4.78654 18.6364 3.28249 15.5367L1.79444 16.2522C3.5839 19.945 7.49459 22.3621 11.8363 22.0439Z" fill="#5CDB95"/>
<path d="M10.4489 3.11218L10.3282 1.46594C14.6901 1.14628 18.6169 3.5873 20.3948 7.3092L18.9068 8.02464C17.4143 4.89593 14.1144 2.84355 10.4489 3.11218Z" fill="#5CDB95"/>
<path fill-rule="evenodd" clip-rule="evenodd" d="M9.61808 1.51722C9.58933 1.12485 9.8841 0.783453 10.2765 0.754698C14.9406 0.412884 19.1378 3.02364 21.0379 7.00135C21.2072 7.35572 21.0578 7.78024 20.7038 7.95042L19.2158 8.66586C19.0452 8.74789 18.8489 8.75863 18.6704 8.69572C18.4918 8.63281 18.3457 8.50142 18.2642 8.33056C16.8937 5.45786 13.8644 3.57538 10.5012 3.82184C10.1089 3.8506 9.76748 3.55583 9.73873 3.16346L9.61808 1.51722ZM2.97413 14.8939C3.3278 14.7239 3.75238 14.8719 3.9237 15.2249C5.30471 18.0711 8.31925 19.9315 11.6639 19.6864C12.0563 19.6577 12.3977 19.9524 12.4264 20.3448L12.5471 21.991C12.5758 22.3834 12.281 22.7248 11.8887 22.7536C7.24605 23.0938 3.06612 20.5087 1.15369 16.562C1.07114 16.3916 1.0598 16.1954 1.12216 16.0167C1.18452 15.8379 1.31547 15.6914 1.48608 15.6093L2.97413 14.8939Z" fill="#5CDB95"/>
<path fill-rule="evenodd" clip-rule="evenodd" d="M0.880333 11.6761C0.48704 11.6761 0.168213 11.3533 0.168213 10.9551V2.69067C0.168213 2.2925 0.48704 1.96973 0.880333 1.96973H3.45506C4.34412 1.96973 5.16061 2.14839 5.88595 2.52651C6.61413 2.90611 7.18704 3.45477 7.5873 4.16557C7.98981 4.8729 8.18423 5.67151 8.189 6.54076L8.18902 6.54477L8.18901 7.07266C8.18901 7.95853 7.99833 8.76893 7.59357 9.48024C7.19156 10.1941 6.61173 10.7415 5.87393 11.1166C5.14574 11.4889 4.31839 11.6677 3.41144 11.6761L3.40494 11.6761H0.880333ZM2.79524 9.34305H3.34856C4.14076 9.34305 4.65923 9.1237 5.00524 8.77195L5.00728 8.76988C5.35375 8.42051 5.57451 7.88391 5.57451 7.04995V6.56748C5.57451 5.75513 5.36539 5.2267 5.03848 4.87986L5.0346 4.87572C4.71679 4.53314 4.2351 4.31534 3.48327 4.30844H2.79524V9.34305ZM18.3678 18.6632L20.3081 13.5876C20.4143 13.3099 20.6782 13.1268 20.9723 13.1268H22.2878C22.5257 13.1268 22.7478 13.2471 22.88 13.4473C23.0121 13.6475 23.0367 13.9013 22.9457 14.1238L19.5628 22.3883C19.4526 22.6576 19.193 22.8332 18.905 22.8332H17.84C17.5518 22.8332 17.2921 22.6574 17.182 22.3878L13.8054 14.1233C13.7145 13.9009 13.7393 13.6472 13.8714 13.4471C14.0036 13.247 14.2256 13.1268 14.4634 13.1268H15.7727C16.0672 13.1268 16.3314 13.3104 16.4372 13.5887L18.3678 18.6632Z" fill="#5CDB95"/>
<path d="M12.3716 11.614C12.3716 12.1575 11.931 12.5981 11.3874 12.5981C10.8439 12.5981 10.4033 12.1575 10.4033 11.614C10.4033 11.0705 10.8439 10.6299 11.3874 10.6299C11.931 10.6299 12.3716 11.0705 12.3716 11.614Z" fill="#5CDB95"/>
<path d="M32.4582 6.51475V17.0098C32.4582 17.106 32.5129 17.1661 32.6223 17.1902C33.0962 17.2743 33.6309 17.3164 34.2263 17.3164C35.9883 17.3164 37.2764 16.8656 38.0906 15.9639C38.9169 15.0623 39.3301 13.6016 39.3301 11.582C39.3301 9.74262 38.9108 8.39016 38.0724 7.52459C37.246 6.64699 35.964 6.2082 34.2263 6.2082C33.6309 6.2082 33.0962 6.25027 32.6223 6.33443C32.5129 6.35847 32.4582 6.41858 32.4582 6.51475ZM32.0208 18.3984C31.7291 18.3623 31.4861 18.2361 31.2916 18.0197C31.0972 17.7913 31 17.5268 31 17.2262V6.29836C31 5.99781 31.0911 5.73934 31.2734 5.52295C31.4678 5.29454 31.717 5.16229 32.0208 5.12623C32.6891 5.04208 33.4243 5 34.2263 5C38.5524 5 40.7154 7.19399 40.7154 11.582C40.7154 16.2104 38.5524 18.5246 34.2263 18.5246C33.4243 18.5246 32.6891 18.4825 32.0208 18.3984Z" fill="#379683"/>
<path d="M44.875 18.1279C44.7292 18.2721 44.5469 18.3443 44.3282 18.3443C44.1094 18.3443 43.9211 18.2721 43.7631 18.1279C43.6173 17.9716 43.5444 17.7852 43.5444 17.5689V5.95574C43.5444 5.73934 43.6173 5.55902 43.7631 5.41475C43.9211 5.25847 44.1094 5.18033 44.3282 5.18033C44.5469 5.18033 44.7292 5.25847 44.875 5.41475C45.033 5.55902 45.112 5.73934 45.112 5.95574V17.5689C45.112 17.7852 45.033 17.9716 44.875 18.1279Z" fill="#379683"/>
<path d="M54.1421 18.5246C52.3193 18.5246 50.8307 17.9175 49.6763 16.7033C48.5219 15.477 47.9447 13.8301 47.9447 11.7623C47.9447 9.67049 48.528 8.0235 49.6945 6.82131C50.8611 5.6071 52.4469 5 54.452 5C55.412 5 56.2808 5.09016 57.0585 5.27049C57.2408 5.30656 57.3866 5.40273 57.496 5.55902C57.6175 5.70328 57.6783 5.86557 57.6783 6.0459C57.6783 6.20219 57.6115 6.32841 57.4778 6.42459C57.3441 6.52076 57.1983 6.54481 57.0403 6.49672C56.2505 6.28033 55.4302 6.17213 54.5796 6.17213C52.9634 6.17213 51.6996 6.66503 50.7882 7.65082C49.889 8.62459 49.4394 9.99508 49.4394 11.7623C49.4394 13.4814 49.8768 14.8459 50.7518 15.8557C51.6388 16.8536 52.8115 17.3525 54.2697 17.3525C55.1568 17.3525 55.977 17.2262 56.7304 16.9738C56.8277 16.9377 56.8763 16.8656 56.8763 16.7574V11.9967C56.8763 11.8885 56.8277 11.8344 56.7304 11.8344H53.1578C52.9877 11.8344 52.8479 11.7803 52.7386 11.6721C52.6292 11.5519 52.5745 11.4137 52.5745 11.2574C52.5745 11.1011 52.6292 10.9689 52.7386 10.8607C52.8479 10.7404 52.9877 10.6803 53.1578 10.6803H57.2408C57.5203 10.6803 57.7634 10.7825 57.9699 10.9869C58.1765 11.1913 58.2798 11.4317 58.2798 11.7082V16.7033C58.2798 17.0158 58.1887 17.3044 58.0064 17.5689C57.8363 17.8213 57.6054 17.9956 57.3137 18.0918C56.3902 18.3803 55.333 18.5246 54.1421 18.5246Z" fill="#379683"/>
<path d="M63.1562 18.1279C63.0103 18.2721 62.8281 18.3443 62.6093 18.3443C62.3906 18.3443 62.2022 18.2721 62.0443 18.1279C61.8984 17.9716 61.8255 17.7852 61.8255 17.5689V5.95574C61.8255 5.73934 61.8984 5.55902 62.0443 5.41475C62.2022 5.25847 62.3906 5.18033 62.6093 5.18033C62.8281 5.18033 63.0103 5.25847 63.1562 5.41475C63.3141 5.55902 63.3931 5.73934 63.3931 5.95574V17.5689C63.3931 17.7852 63.3141 17.9716 63.1562 18.1279Z" fill="#379683"/>
<path d="M70.2906 17.5869L66.1529 5.90164C66.0921 5.72131 66.1104 5.55902 66.2076 5.41475C66.317 5.25847 66.4689 5.18033 66.6633 5.18033C66.8942 5.18033 67.1068 5.25246 67.3013 5.39672C67.4957 5.52896 67.6294 5.70328 67.7023 5.91967L71.3843 16.9016C71.3843 16.9137 71.3904 16.9197 71.4025 16.9197C71.4268 16.9197 71.439 16.9137 71.439 16.9016L75.121 5.88361C75.1939 5.66721 75.3215 5.49891 75.5037 5.37869C75.686 5.24645 75.8926 5.18033 76.1235 5.18033C76.3058 5.18033 76.4516 5.25847 76.561 5.41475C76.6703 5.55902 76.6946 5.7153 76.6339 5.88361L72.4779 17.5869C72.3929 17.8153 72.2471 18.0016 72.0405 18.1459C71.846 18.2781 71.6273 18.3443 71.3843 18.3443C71.1412 18.3443 70.9164 18.2781 70.7098 18.1459C70.5154 18.0016 70.3757 17.8153 70.2906 17.5869Z" fill="#379683"/>
<path d="M79.7266 18.3443C79.4471 18.3443 79.2041 18.2421 78.9975 18.0377C78.7909 17.8333 78.6876 17.5929 78.6876 17.3164V6.2082C78.6876 5.93169 78.7909 5.69126 78.9975 5.48688C79.2041 5.28251 79.4471 5.18033 79.7266 5.18033H85.8511C86.0212 5.18033 86.1671 5.24044 86.2886 5.36066C86.4101 5.48087 86.4709 5.61913 86.4709 5.77541C86.4709 5.93169 86.4101 6.07596 86.2886 6.2082C86.1671 6.32841 86.0212 6.38852 85.8511 6.38852H80.3099C80.2005 6.38852 80.1458 6.43661 80.1458 6.53279V10.5361C80.1458 10.6322 80.2005 10.6803 80.3099 10.6803H85.523C85.6931 10.6803 85.8329 10.7404 85.9423 10.8607C86.0516 10.9689 86.1063 11.1011 86.1063 11.2574C86.1063 11.4137 86.0516 11.5519 85.9423 11.6721C85.8329 11.7803 85.6931 11.8344 85.523 11.8344H80.3099C80.2005 11.8344 80.1458 11.8885 80.1458 11.9967V16.9918C80.1458 17.088 80.2005 17.1361 80.3099 17.1361H85.8511C86.0212 17.1361 86.1671 17.2022 86.2886 17.3344C86.4101 17.4546 86.4709 17.5929 86.4709 17.7492C86.4709 17.9055 86.4101 18.0437 86.2886 18.1639C86.1671 18.2842 86.0212 18.3443 85.8511 18.3443H79.7266Z" fill="#379683"/>
<path d="M90.5888 18.1459C90.4551 18.2781 90.291 18.3443 90.0966 18.3443C89.9022 18.3443 89.7321 18.2781 89.5862 18.1459C89.4526 18.0137 89.3857 17.8454 89.3857 17.641V5.91967C89.3857 5.7153 89.4586 5.54098 89.6045 5.39672C89.7503 5.25246 89.9265 5.18033 90.1331 5.18033C90.6313 5.18033 91.008 5.39672 91.2632 5.82951L97.3148 15.982C97.3148 15.994 97.327 16 97.3513 16C97.3634 16 97.3695 15.994 97.3695 15.982V5.88361C97.3695 5.67923 97.4363 5.51093 97.57 5.37869C97.7158 5.24645 97.8859 5.18033 98.0804 5.18033C98.2748 5.18033 98.4388 5.24645 98.5725 5.37869C98.7183 5.51093 98.7912 5.67923 98.7912 5.88361V17.6049C98.7912 17.8093 98.7183 17.9836 98.5725 18.1279C98.4267 18.2721 98.2505 18.3443 98.0439 18.3443C97.5457 18.3443 97.169 18.1279 96.9138 17.6951L90.8622 7.54262C90.8622 7.5306 90.85 7.52459 90.8257 7.52459C90.8136 7.52459 90.8075 7.5306 90.8075 7.54262V17.641C90.8075 17.8454 90.7346 18.0137 90.5888 18.1459Z" fill="#379683"/>
<path d="M102.046 6.40656C101.876 6.40656 101.73 6.34645 101.608 6.22623C101.487 6.10601 101.426 5.96175 101.426 5.79344C101.426 5.62514 101.487 5.48087 101.608 5.36066C101.73 5.24044 101.876 5.18033 102.046 5.18033H110.175C110.345 5.18033 110.491 5.24044 110.613 5.36066C110.734 5.48087 110.795 5.62514 110.795 5.79344C110.795 5.96175 110.734 6.10601 110.613 6.22623C110.491 6.34645 110.345 6.40656 110.175 6.40656H107.004C106.894 6.40656 106.84 6.46065 106.84 6.56885V17.623C106.84 17.8153 106.767 17.9836 106.621 18.1279C106.487 18.2721 106.317 18.3443 106.111 18.3443C105.904 18.3443 105.728 18.2721 105.582 18.1279C105.448 17.9836 105.381 17.8153 105.381 17.623V6.56885C105.381 6.46065 105.327 6.40656 105.217 6.40656H102.046Z" fill="#379683"/>
</svg>
