<svg width="44" height="45" viewBox="0 0 44 45" fill="none" xmlns="http://www.w3.org/2000/svg">
<path d="M21.8327 31.8985L21.7215 30.3798C18.3586 30.6263 15.3295 28.7551 13.9421 25.8957L12.5694 26.5557C14.2201 29.9623 17.8276 32.192 21.8327 31.8985Z" fill="#C4C4C4"/>
<path d="M20.5529 14.4344L20.4416 12.9158C24.4653 12.6209 28.0877 14.8727 29.7278 18.3061L28.3551 18.966C26.9783 16.0799 23.9343 14.1866 20.5529 14.4344Z" fill="#C4C4C4"/>
<path fill-rule="evenodd" clip-rule="evenodd" d="M19.0877 13.0172C19.0329 12.2692 19.5948 11.6184 20.3428 11.5636C24.9428 11.2265 29.0806 13.8019 30.9536 17.7229C31.2763 18.3984 30.9914 19.2077 30.3167 19.5321L28.944 20.1921C28.6188 20.3484 28.2447 20.3689 27.9043 20.249C27.5639 20.1291 27.2853 19.8786 27.1299 19.5529C25.9859 17.1548 23.4575 15.5854 20.6526 15.7909C19.9046 15.8457 19.2538 15.2838 19.199 14.5358L19.0877 13.0172ZM13.3541 24.674C14.0283 24.3499 14.8377 24.632 15.1643 25.3051C16.3172 27.6811 18.8333 29.2321 21.6227 29.0277C22.3707 28.9728 23.0215 29.5348 23.0763 30.2828L23.1876 31.8014C23.2424 32.5494 22.6805 33.2002 21.9325 33.255C17.3537 33.5905 13.233 31.0404 11.3478 27.15C11.1904 26.8253 11.1688 26.4512 11.2877 26.1105C11.4066 25.7698 11.6562 25.4904 11.9814 25.334L13.3541 24.674Z" fill="#5CDB95"/>
<path d="M22.5638 42.0235L22.3338 38.8853C15.3845 39.3945 9.12478 35.5278 6.25757 29.6187L3.42089 30.9826C6.83217 38.0224 14.2872 42.6301 22.5638 42.0235Z" fill="#5CDB95"/>
<path d="M19.919 5.93366L19.689 2.79542C28.004 2.18604 35.4898 6.83939 38.8791 13.9345L36.0424 15.2984C33.1972 9.33404 26.9067 5.42157 19.919 5.93366Z" fill="#5CDB95"/>
<path fill-rule="evenodd" clip-rule="evenodd" d="M18.3351 2.89195C18.2803 2.14397 18.8422 1.49317 19.5902 1.43835C28.4815 0.786745 36.4827 5.76367 40.1049 13.3464C40.4276 14.022 40.1427 14.8313 39.468 15.1557L36.6313 16.5195C36.3061 16.6759 35.932 16.6964 35.5916 16.5764C35.2513 16.4565 34.9726 16.206 34.8172 15.8803C32.2048 10.4041 26.4299 6.81545 20.0187 7.2853C19.2707 7.34011 18.6199 6.77819 18.5651 6.0302L18.3351 2.89195ZM5.66962 28.3921C6.34383 28.068 7.15323 28.3501 7.4798 29.0232C10.1125 34.4488 15.8591 37.9954 22.235 37.5282C22.983 37.4734 23.6338 38.0353 23.6886 38.7833L23.9186 41.9215C23.9735 42.6695 23.4115 43.3203 22.6635 43.3751C13.8133 44.0237 5.84499 39.0956 2.1993 31.572C2.04194 31.2473 2.02031 30.8732 2.13919 30.5325C2.25808 30.1918 2.5077 29.9124 2.83294 29.756L5.66962 28.3921Z" fill="#5CDB95"/>
<path fill-rule="evenodd" clip-rule="evenodd" d="M1.67833 22.2573C0.928585 22.2573 0.320801 21.642 0.320801 20.8829V5.12824C0.320801 4.36922 0.928585 3.75391 1.67833 3.75391H6.58656C8.28139 3.75391 9.83789 4.09449 11.2206 4.81531C12.6088 5.53895 13.7009 6.58487 14.4639 7.93987C15.2312 9.28827 15.6018 10.8107 15.6109 12.4677L15.611 12.4754L15.611 13.4817C15.611 15.1704 15.2475 16.7153 14.4759 18.0713C13.7095 19.4322 12.6042 20.4757 11.1977 21.1907C9.80954 21.9005 8.23235 22.2412 6.50342 22.2572L6.49103 22.2573H1.67833ZM5.32875 17.8098H6.38355C7.89373 17.8098 8.88209 17.3916 9.5417 16.7211L9.54558 16.7171C10.2061 16.0511 10.6269 15.0282 10.6269 13.4384V12.5187C10.6269 10.9701 10.2282 9.96272 9.60506 9.30154L9.59767 9.29364C8.99183 8.64059 8.07356 8.22539 6.64034 8.21223H5.32875V17.8098ZM35.015 35.5769L38.7139 25.9012C38.9162 25.3718 39.4192 25.0229 39.9799 25.0229H42.4877C42.9412 25.0229 43.3647 25.252 43.6165 25.6337C43.8684 26.0154 43.9154 26.4993 43.7418 26.9233L37.2931 42.6781C37.0829 43.1915 36.588 43.5263 36.039 43.5263H34.0088C33.4595 43.5263 32.9643 43.1911 32.7543 42.6772L26.3175 26.9225C26.1443 26.4985 26.1915 26.0149 26.4434 25.6334C26.6953 25.2519 27.1187 25.0229 27.572 25.0229H30.0679C30.6293 25.0229 31.1329 25.3728 31.3347 25.9032L35.015 35.5769Z" fill="#5CDB95"/>
<path d="M23.5839 22.1397C23.5839 23.1758 22.744 24.0158 21.7078 24.0158C20.6717 24.0158 19.8318 23.1758 19.8318 22.1397C19.8318 21.1036 20.6717 20.2637 21.7078 20.2637C22.744 20.2637 23.5839 21.1036 23.5839 22.1397Z" fill="#5CDB95"/>
</svg>
