<svg width="25" height="25" viewBox="0 0 25 25" fill="none" xmlns="http://www.w3.org/2000/svg">
<path fill-rule="evenodd" clip-rule="evenodd" d="M12.5 24.2999L13.1851 23.7016C18.9466 18.6709 21.875 14.2782 21.875 10.417C21.875 4.94893 17.6072 1.04199 12.5 1.04199C7.39276 1.04199 3.125 4.94893 3.125 10.417C3.125 14.2782 6.05345 18.6709 11.8149 23.7016L12.5 24.2999ZM12.5001 21.5248C7.61114 17.1187 5.20841 13.385 5.20841 10.4171C5.20841 6.1427 8.50437 3.12541 12.5001 3.12541C16.4958 3.12541 19.7917 6.1427 19.7917 10.4171C19.7917 13.385 17.389 17.1187 12.5001 21.5248ZM12.4999 5.20858C15.3764 5.20858 17.7083 7.54043 17.7083 10.4169C17.7083 13.2934 15.3764 15.6252 12.4999 15.6252C9.62344 15.6252 7.29158 13.2934 7.29158 10.4169C7.29158 7.54043 9.62344 5.20858 12.4999 5.20858ZM9.375 10.417C9.375 8.6911 10.7741 7.29199 12.5 7.29199C14.2259 7.29199 15.625 8.6911 15.625 10.417C15.625 12.1429 14.2259 13.542 12.5 13.542C10.7741 13.542 9.375 12.1429 9.375 10.417Z" fill="#828282"/>
</svg>
