<svg width="25" height="25" viewBox="0 0 25 25" fill="none" xmlns="http://www.w3.org/2000/svg">
<path fill-rule="evenodd" clip-rule="evenodd" d="M12.5 23.9587C6.1717 23.9587 1.04163 18.8286 1.04163 12.5003C1.04163 6.17206 6.1717 1.04199 12.5 1.04199C18.8282 1.04199 23.9583 6.17206 23.9583 12.5003C23.9583 18.8286 18.8282 23.9587 12.5 23.9587ZM12.5 21.8754C17.6777 21.8754 21.875 17.6781 21.875 12.5004C21.875 7.32274 17.6777 3.12541 12.5 3.12541C7.32237 3.12541 3.12504 7.32274 3.12504 12.5004C3.12504 17.6781 7.32237 21.8754 12.5 21.8754ZM17.7082 11.4587H13.5415V6.25041H11.4582V13.5421H17.7082V11.4587Z" fill="#828282"/>
</svg>
