<svg width="35" height="35" viewBox="0 0 35 35" fill="none" xmlns="http://www.w3.org/2000/svg">
<path fill-rule="evenodd" clip-rule="evenodd" d="M17.4999 33.5413C8.64035 33.5413 1.45825 26.3592 1.45825 17.4997C1.45825 8.64011 8.64035 1.45801 17.4999 1.45801C26.3595 1.45801 33.5416 8.64011 33.5416 17.4997C33.5416 26.3592 26.3595 33.5413 17.4999 33.5413ZM28.2909 24.9732C29.7625 22.8523 30.625 20.2767 30.625 17.4997C30.625 10.251 24.7487 4.37472 17.5 4.37472C10.2512 4.37472 4.37497 10.251 4.37497 17.4997C4.37497 20.2767 5.2374 22.8523 6.70903 24.9732C8.35031 22.8052 12.2071 21.8747 17.4999 21.8747C22.7928 21.8747 26.6496 22.8052 28.2909 24.9732ZM26.1984 27.3286C25.7716 25.7938 22.7053 24.7914 17.4999 24.7914C12.2946 24.7914 9.2283 25.7938 8.80146 27.3285C11.1173 29.3796 14.1632 30.6247 17.5 30.6247C20.8367 30.6247 23.8826 29.3796 26.1984 27.3286ZM17.4999 8.74972C13.9694 8.74972 11.6665 11.3102 11.6665 14.5831C11.6665 19.5813 14.2345 21.8747 17.4999 21.8747C20.7346 21.8747 23.3332 19.6575 23.3332 14.8747C23.3332 11.552 21.0206 8.74972 17.4999 8.74972ZM14.5832 14.583C14.5832 17.8923 15.7765 18.958 17.4999 18.958C19.2174 18.958 20.4166 17.9348 20.4166 14.8746C20.4166 13.0523 19.2728 11.6663 17.4999 11.6663C15.6533 11.6663 14.5832 12.856 14.5832 14.583Z" fill="#BDBDBD"/>
</svg>
